<?xml version="1.0" encoding="UTF-8"?>
<svg id="Layer_1" data-name="Layer 1" xmlns="http://www.w3.org/2000/svg" viewBox="0 0 204.47 61.48">
  <defs>
    <style>
      .cls-1 {
        font-size: 1.18px;
      }

      .cls-1, .cls-2, .cls-3, .cls-4 {
        font-family: CooperBlack, 'Cooper Black';
      }

      .cls-1, .cls-3, .cls-4 {
        fill: #c2c2c1;
      }

      .cls-5 {
        fill: #825da7;
      }

      .cls-5, .cls-6, .cls-7, .cls-8, .cls-9 {
        stroke-width: 0px;
      }

      .cls-10 {
        fill: #446db5;
        font-family: Snapp, Snapp;
        font-size: 22.35px;
      }

      .cls-2 {
        fill: #fff;
        font-size: 2.49px;
      }

      .cls-6 {
        fill: gray;
      }

      .cls-7 {
        fill: #436db5;
      }

      .cls-8 {
        fill: #426db5;
      }

      .cls-3 {
        font-size: 1.81px;
      }

      .cls-9 {
        fill: #8b1735;
      }

      .cls-4 {
        font-size: 3.95px;
      }
    </style>
  </defs>
  <path class="cls-8" d="m0,30.57c0-1.01.76-1.87,1.77-1.94,6.01-.44,6.91-3.17,6.91-5.65,0-2.16-.43-4.32-.86-6.48-.43-2.16-.86-4.24-.86-6.4C6.96,3.01,13.38,0,22.49,0h.32C23.87,0,24.73.86,24.73,1.93v.39c0,1.06-.86,1.93-1.93,1.93h0c-6.32,0-8.46,2.47-8.46,6.63,0,1.77.32,3.63.75,5.48.43,1.93.75,3.78.75,5.86.11,4.94-2.89,7.4-7.71,8.33v.15c7.66-.65,7.82,3.47,7.71,8.41-.05,2.08-.32,4.01-.75,5.86-.43,1.93-.75,3.7-.75,5.55,0,4.32,2.46,6.71,8.46,6.71h0c1.06,0,1.93.86,1.93,1.93v.39c0,1.06-.86,1.93-1.93,1.93h-.32c-8.89,0-15.53-2.78-15.53-10.57,0-2.08.43-4.24.86-6.33.43-2.08.86-4.17.86-6.25,0-2.19-.9-5.16-6.91-5.64-1.01-.08-1.77-.95-1.77-1.96v-.16Z"/>
  <path class="cls-7" d="m204.47,30.9c0,1.01-.76,1.87-1.77,1.94-6.01.44-6.91,3.17-6.91,5.65,0,2.16.43,4.32.86,6.48.43,2.16.86,4.24.86,6.4,0,7.1-6.42,10.1-15.53,10.1h-.32c-1.06,0-1.93-.86-1.93-1.93v-.39c0-1.06.86-1.93,1.93-1.93h0c6.32,0,8.46-2.47,8.46-6.63,0-1.77-.32-3.63-.75-5.48-.43-1.93-.75-3.78-.75-5.86-.11-4.94,2.89-7.4,7.71-8.33v-.15c-7.66.65-7.82-3.47-7.71-8.41.05-2.08.32-4.01.75-5.86.43-1.93.75-3.7.75-5.55,0-4.32-2.46-6.71-8.46-6.71h0c-1.06,0-1.93-.86-1.93-1.93v-.39C179.74.86,180.6,0,181.67,0h.32c8.89,0,15.53,2.78,15.53,10.57,0,2.08-.43,4.24-.86,6.33-.43,2.08-.86,4.17-.86,6.25,0,2.19.9,5.16,6.91,5.64,1.01.08,1.77.95,1.77,1.96v.16Z"/>
  <path class="cls-5" d="m34.38,22.92v2.94c0,.55-.27,1.07-.72,1.39l-2.94,2.09c-.95.68-.96,2.1,0,2.78l2.92,2.09c.45.32.71.83.71,1.38v2.88c.02,1.37-1.51,2.19-2.65,1.42l-8.55-5.75c-.47-.32-.75-.85-.75-1.42v-4.05c0-.57.28-1.1.76-1.42l8.57-5.75c1.13-.76,2.66.05,2.66,1.42Z"/>
  <path class="cls-6" d="m38.41,37.84l4.88-12.98c.13-.37.25-.73.36-1.09.08-.24.17-.49.26-.74.08-.24.29-.83.62-1.77.28-.78.49-1.4.63-1.86.17-.58.35-.96.55-1.16.19-.19.49-.29.88-.29,1.49,0,2.24.42,2.24,1.25,0,.36-.11.78-.34,1.28-1.04,2.37-1.82,4.25-2.34,5.65l-4.86,12.93c-.67,1.78-1.12,3.01-1.34,3.71-.46,1.42-.78,2.28-.96,2.57-.26.41-.64.62-1.13.62-.59,0-1.1-.13-1.51-.39s-.62-.58-.62-.95c0-.24.04-.47.11-.69s.35-.86.83-1.93c.77-1.75,1.35-3.13,1.73-4.15Z"/>
  <path class="cls-5" d="m169.69,38.49v-2.94c0-.55.27-1.07.72-1.39l2.94-2.1c.95-.68.96-2.09,0-2.78l-2.92-2.09c-.44-.32-.71-.83-.71-1.38l-.02-2.88c0-1.37,1.52-2.19,2.66-1.43l8.56,5.75c.47.32.75.85.75,1.42v4.05c0,.57-.28,1.1-.76,1.42l-8.58,5.75c-1.13.76-2.66-.05-2.66-1.42Z"/>
  <text class="cls-1" transform="translate(174.93 30.98) rotate(.23)"><tspan x="0" y="0">HTML</tspan></text>
  <text class="cls-4" transform="translate(45.05 17.16)"><tspan x="0" y="0">JS</tspan></text>
  <text class="cls-2" transform="translate(41.62 36.3) rotate(-69.25) scale(.84 1)"><tspan x="0" y="0">FW</tspan></text>
  <text class="cls-3" transform="translate(25.01 31.07) rotate(.21)"><tspan x="0" y="0">CSS</tspan></text>
  <path class="cls-9" d="m117.06,19.05v-2.15c0-1.1.51-1.65,1.52-1.65h.87v3.8h-2.39Zm1.52-2.78c-.45.02-.67.25-.67.68v1.09h.67v-1.76Z"/>
  <path class="cls-9" d="m120.4,19.05v-1.01h1.67v-1.2c0-.39-.12-.58-.37-.58h-.1c-.2,0-.31.16-.31.47v.27h-.85v-.36c0-.93.39-1.39,1.18-1.39h.04c.83,0,1.24.5,1.24,1.5v1.29h.51v1.01h-3.02Z"/>
  <path class="cls-9" d="m123.28,19.05v-1.01h4.06v-1.14c0-.39-.13-.59-.38-.59h-3.28v-1.06l2.62-2.66h1.43l-2.57,2.66h1.97c.71,0,1.06.38,1.06,1.15v2.66h-4.91Z"/>
  <path class="cls-9" d="m130.45,15.26v1.06h-4.51c.02-.71.37-1.06,1.05-1.06h1.97l-1.83-1.89-.71-.74-.03-.03h1.43l.04.04,2.59,2.62Z"/>
  <path class="cls-9" d="m131.15,19.05v-1.01h1.67v-1.2c0-.39-.12-.58-.37-.58h-.1c-.2,0-.31.16-.31.47v.27h-.85v-.36c0-.93.39-1.39,1.18-1.39h.04c.83,0,1.24.5,1.24,1.5v1.29h.51v1.01h-3.02Z"/>
  <path class="cls-9" d="m134.03,19.05v-1.01h1.38v-2.79h.85v3.8h-2.22Zm1.18-4.83c-.1.11-.22.17-.36.17s-.26-.06-.35-.17c-.09-.11-.14-.25-.14-.42s.05-.31.14-.44c.12-.11.23-.17.35-.17.14,0,.26.06.36.17.1.11.15.26.15.44,0,.15-.05.29-.16.42Z"/>
  <path class="cls-9" d="m137.2,19.05v-7.14h.85v7.14h-.85Z"/>
  <path class="cls-9" d="m141.65,19.05c-.43,0-.64-.25-.64-.75v-2.33c0-.49.22-.73.66-.73h.83v1h-.43c-.14,0-.21.11-.21.33v1.1c0,.25.09.37.27.37h2.11v-2.79h.85v2.79h.4v1.01h-3.85Zm1.42-4.83c-.11.11-.23.17-.36.17-.14,0-.26-.06-.36-.17-.1-.11-.15-.25-.15-.42s.05-.31.16-.44c.11-.11.23-.17.35-.17.14,0,.26.06.36.17.1.11.14.26.14.44,0,.15-.05.29-.14.42Zm1.19,0c-.1.11-.23.17-.36.17s-.25-.06-.35-.17c-.1-.11-.14-.25-.14-.42s.05-.31.14-.44c.12-.11.23-.17.35-.17.14,0,.26.06.36.17.1.11.15.26.15.44,0,.15-.05.29-.15.42Z"/>
  <path class="cls-9" d="m145.37,19.05v-1.01h1.38v-2.79h.85v3.8h-2.22Zm1.18-4.83c-.1.11-.22.17-.36.17s-.26-.06-.35-.17c-.09-.11-.14-.25-.14-.42s.05-.31.14-.44c.12-.11.23-.17.35-.17.14,0,.26.06.36.17.1.11.15.26.15.44,0,.15-.05.29-.16.42Z"/>
  <path class="cls-9" d="m148.54,19.05v-7.14h.85v7.14h-.85Z"/>
  <path class="cls-9" d="m151.41,19.05c-.02.54-.2.98-.54,1.33h-1.06c.5-.49.75-.93.75-1.33v-3.8h.85v2.79h.39v1.01h-.39Z"/>
  <path class="cls-9" d="m151.66,19.05v-1.01h1.13c-.25-.31-.37-.69-.37-1.15,0-1.1.56-1.65,1.69-1.65h.77v3.8h-3.22Zm2.44-4.83c-.11.11-.23.17-.37.17-.13,0-.24-.06-.34-.17-.1-.11-.15-.25-.15-.42s.05-.31.14-.44c.11-.11.23-.17.34-.17.15,0,.27.06.36.17.1.11.15.26.15.44,0,.15-.05.29-.14.42Zm-.07,3.82v-1.76c-.5.02-.75.17-.75.47,0,.59.25,1.02.75,1.29Z"/>
  <text class="cls-10" transform="translate(49.91 36.03)"><tspan x="0" y="0">FrontendKadeh</tspan></text>
</svg>